<svg xmlns="http://www.w3.org/2000/svg" width="175.7" height="175.634" viewBox="0 0 175.7 175.634"><defs><style>.a{fill:#00375f;}</style></defs><path class="a" d="M50.857,14.765a1.859,1.859,0,0,0-3.019-.274L11.8,62.406a1.834,1.834,0,0,0,1.255,3.019l63.168,5.489a1.866,1.866,0,0,0,1.764-2.784Z" transform="translate(39.446 50.803)"/><path class="a" d="M36.641,19.329a1.859,1.859,0,0,0-3.019-.274L23.9,28.9a1.835,1.835,0,0,0-.2,2.117l9.959,19.409a1.827,1.827,0,0,0,1.451.9l17.606,1.529a1.866,1.866,0,0,0,1.764-2.784Z" transform="translate(94.794 71.687)"/><path class="a" d="M34.348,31a9.274,9.274,0,1,0-9.293-11.018A9.346,9.346,0,0,0,34.348,31Z" transform="translate(101.361 44.449)"/><path class="a" d="M168.19,40.408l-25.8-2.235L140,11.9A10.592,10.592,0,0,0,128.431,2.3L11.936,12.8A10.636,10.636,0,0,0,2.291,24.332L12.8,140.591A10.592,10.592,0,0,0,24.366,150.2l6.156-.549-.588,6.548a10.6,10.6,0,0,0,9.685,11.489l116.573,10.156A10.636,10.636,0,0,0,167.72,168.2L177.915,51.9A10.683,10.683,0,0,0,168.19,40.408ZM24.052,107.615a2.7,2.7,0,0,1-2.9-2.392L14.093,26.8a2.639,2.639,0,0,1,2.392-2.862L125.961,14.1a2.7,2.7,0,0,1,2.9,2.392l1.882,20.7-79.088-6.94A10.636,10.636,0,0,0,40.129,39.9l-5.842,66.776Zm142.021-53.17-6.862,78.421a2.67,2.67,0,0,1-2.862,2.431l-7.293-.627-102.222-8.9a2.67,2.67,0,0,1-2.431-2.862l1.49-17.213,5.372-61.208a2.67,2.67,0,0,1,2.862-2.431l77.637,6.783,11.646,1.019,20.233,1.764A2.56,2.56,0,0,1,166.073,54.446Z" transform="translate(-2.25 -2.249)"/></svg>