<svg width="150" height="150" xmlns="http://www.w3.org/2000/svg">
    <g fill="none" fill-rule="evenodd">
        <path d="M150 75c0 41.421-33.579 75-75 75S0 116.421 0 75 33.579 0 75 0s75 33.579 75 75" fill="#5D1F52"/>
        <path d="M75 5.625C36.746 5.625 5.625 36.746 5.625 75c0 38.254 31.121 69.375 69.375 69.375 38.254 0 69.375-31.121 69.375-69.375 0-38.254-31.121-69.375-69.375-69.375m0 140.809c-9.643 0-18.998-1.889-27.806-5.614A71.198 71.198 0 0 1 24.49 125.51 71.197 71.197 0 0 1 9.18 102.806C5.455 93.998 3.566 84.643 3.566 75S5.455 56.002 9.18 47.194A71.196 71.196 0 0 1 24.49 24.49 71.196 71.196 0 0 1 47.194 9.18C56.002 5.455 65.357 3.566 75 3.566s18.998 1.889 27.806 5.614A71.195 71.195 0 0 1 125.51 24.49a71.19 71.19 0 0 1 15.309 22.705c3.725 8.808 5.614 18.163 5.614 27.806s-1.889 18.998-5.614 27.806a71.192 71.192 0 0 1-15.309 22.705 71.196 71.196 0 0 1-22.705 15.309c-8.808 3.725-18.163 5.614-27.806 5.614" fill="#FFF"/>
        <path d="M17.537 67.83a1.765 1.765 0 1 1-3.53 0 1.765 1.765 0 0 1 3.53 0" fill="#C00"/>
        <path d="M15.846 69.593c-.025.003-.049.003-.074.003a1.764 1.764 0 1 1 0-3.53c.025 0 .049 0 .074.003a1.762 1.762 0 0 0-1.692 1.762c0 .95.75 1.725 1.692 1.762" fill="#FF7676"/>
        <path d="M14.301 75.184a1.765 1.765 0 1 1-3.53 0 1.765 1.765 0 0 1 3.53 0M12.096 82.537a1.765 1.765 0 1 1-3.53 0 1.765 1.765 0 0 1 3.53 0M19.007 82.537a2.206 2.206 0 1 1-4.412 0 2.206 2.206 0 0 1 4.412 0M21.654 75.184a2.206 2.206 0 1 1-4.411 0 2.206 2.206 0 0 1 4.411 0M24.29 67.605a2.206 2.206 0 1 1-4.389.451 2.206 2.206 0 0 1 4.389-.45" fill="#C00"/>
        <path d="M22.225 70.03a2.204 2.204 0 0 1-2.341-1.973 2.208 2.208 0 0 1 2.337-2.426l-.033.001a2.207 2.207 0 0 0-2.014 2.383 2.203 2.203 0 0 0 2.051 2.016M19.578 77.384a2.204 2.204 0 0 1-2.341-1.974 2.208 2.208 0 0 1 2.337-2.426l-.033.001a2.207 2.207 0 0 0-2.015 2.383 2.203 2.203 0 0 0 2.052 2.016M16.93 84.737a2.204 2.204 0 0 1-2.34-1.974 2.208 2.208 0 0 1 2.336-2.426l-.032.001a2.207 2.207 0 0 0-2.015 2.383 2.203 2.203 0 0 0 2.052 2.016M12.61 76.946c-.025.003-.048.003-.073.003a1.764 1.764 0 1 1 .073-3.527 1.762 1.762 0 0 0-1.69 1.762c0 .95.75 1.725 1.69 1.762M10.404 84.299c-.025.002-.048.002-.073.002a1.764 1.764 0 1 1 .073-3.526 1.762 1.762 0 0 0-1.69 1.762c0 .95.75 1.725 1.69 1.762" fill="#FF7676"/>
        <path d="M51.372 65.532c.322.196.496.522.513.97.039.942-.707 1.829-1.686 1.973-.36.053-.73.051-1.095.068-.169.008-.34.001-.558.001l.188.922 6.738-2.788c.152-.485.512-.893.975-1.135l-5.075-.01zm-6.346 3.218c-.011-.059-.03-.115-.054-.203-.909 0-1.816-.041-1.976-1.241v-.153c.069-.397.185-.77.448-1.091.194-.238.416-.42.66-.546l-14.79-.03c-.052-.004-.105-.008-.16-.008-.05 0-.098.004-.147.007h-.029v.002A2.058 2.058 0 0 0 27.1 67.68c.07 1.008.95 1.769 1.96 1.769h13.918a1.913 1.913 0 0 1 1.89 1.618l.583-.243c-.14-.692-.282-1.383-.425-2.074zm3.22 15.68c-.758-3.71-1.522-7.42-2.286-11.129l-.156-.757-1.517.615a1.542 1.542 0 0 1-.581.113h-.287c-.091.013-.347 0-.441 0H26.12c-1.01 0-1.891.76-1.96 1.768a2.012 2.012 0 0 0-.006.144v.022c.01.972.831 1.743 1.803 1.743h12.756v.011l.049-.001h.009v.001a1.91 1.91 0 0 1-.036 3.803v.002h-.022l-15.248.007c-.33 0-.652.109-.906.316a2.056 2.056 0 0 0 1.14 3.646v.001h.014c.049.003.097.008.147.008.064 0 .127-.005.19-.01l24.256-.152a.332.332 0 0 1-.06-.152zm9.464-15.886c-.39-.015-.784-.012-1.172-.051a1.547 1.547 0 0 1-.562-.158l-6.89 2.852 1.776 8.676 7.16-11.319c-.138 0-.225.003-.312 0zm-6.128 15.853a.58.58 0 0 1-.14.163l3.571-.022a3.05 3.05 0 0 0 2.996-2.582l1.597-10.3c-2.675 4.247-5.352 8.493-8.024 12.741zM114.523 77.645l3.016-9.1c-.53 0-1.022.006-1.513-.003-.315-.005-.633-.007-.942-.053-.895-.135-1.3-.75-1.1-1.634.182-.801.89-1.433 1.744-1.54.262-.034.526-.053.79-.054 1.44-.002 2.88.003 4.32.01.22 0 .442.019.662.04 1 .096 1.477.806 1.164 1.764-.252.767-.81 1.225-1.584 1.41-.21.05-.302.148-.367.347-1.701 5.18-3.411 10.358-5.11 15.54-.072.222-.168.278-.39.275-1.013-.012-2.027-.005-3.041-.005h-.29c-.382-3.09-.76-6.152-1.148-9.28-.079.136-.127.213-.17.293-1.576 2.921-3.154 5.842-4.725 8.766-.088.164-.18.227-.37.226-1.047-.01-2.095-.005-3.143-.005h-.285l1.468-16.076-.182-.045c-.834-.197-1.187-.758-1.004-1.597a2.077 2.077 0 0 1 1.746-1.608c.26-.035.526-.054.789-.055 1.457-.002 2.914.003 4.37.01.23 0 .46.019.689.043.937.102 1.377.75 1.148 1.683-.217.884-1.019 1.493-2.054 1.532-.622.023-1.244.012-1.866.016h-.31l-.852 9.035.037.016c.05-.084.103-.166.15-.251 1.283-2.335 2.568-4.67 3.843-7.009.102-.188.208-.266.429-.263.963.013 1.926.01 2.888.001.195-.002.255.053.279.252.281 2.393.575 4.785.866 7.178.003.022.015.044.048.14M128.413 74.757l-1.11-1.783c-.873-1.402-1.747-2.804-2.615-4.209-.093-.15-.19-.226-.378-.235-1.12-.057-1.667-.928-1.226-1.97.302-.712.855-1.133 1.626-1.243.252-.036.508-.057.763-.055 1.226.01 2.454-.003 3.678.056 1.061.05 1.538.851 1.164 1.85-.147.393-.382.724-.744.948-.246.151-.5.29-.778.45l2.274 3.642 3.761-3.65c-.094-.064-.174-.12-.254-.173-.636-.425-.843-.973-.59-1.698.278-.792.853-1.253 1.687-1.372.252-.036.509-.055.764-.053 1.217.01 2.435.016 3.653.054.471.015.914.16 1.14.642.174.374.164.76.042 1.146-.25.784-1.044 1.374-1.94 1.424a.64.64 0 0 0-.445.197c-2.013 1.95-4.03 3.899-6.051 5.84-.157.151-.179.251-.06.443 1.27 2.048 2.53 4.101 3.788 6.157.09.145.184.205.36.212.923.035 1.427.526 1.397 1.337-.032.855-.662 1.63-1.5 1.818-.272.06-.555.1-.834.102-1.371.011-2.743.008-4.115.003-.195 0-.391-.023-.584-.056-.818-.14-1.215-.734-1.052-1.563.162-.82.85-1.46 1.723-1.598.143-.022.286-.04.475-.067l-2.419-4.046-4.17 4.043c.135.02.225.032.313.047.987.17 1.424.875 1.094 1.829-.275.794-.856 1.252-1.693 1.36a7.19 7.19 0 0 1-.891.053 414.81 414.81 0 0 1-3.502 0 6.046 6.046 0 0 1-.713-.042c-1-.124-1.44-.818-1.14-1.787.253-.817 1.041-1.387 2.01-1.433a.596.596 0 0 0 .422-.184c2.15-2.092 4.303-4.179 6.457-6.266.061-.06.133-.107.213-.17M72.124 81.432c-3.203 1.26-6.171-.517-6.596-3.935-.409-3.287 1.647-7.818 5.912-9.18 2.94-.942 5.71.829 6.12 3.896.046.337.064.678.093 1.016-.041 3.573-2.302 6.934-5.53 8.203m8.86-8.953c0-.229.013-.46 0-.688-.132-2.198-1.02-4.022-2.726-5.423-1.885-1.547-4.058-1.897-6.376-1.377-2.72.612-4.928 2.11-6.707 4.225-1.703 2.024-2.7 4.377-2.99 7.012-.156 1.42-.055 2.822.435 4.18a7.131 7.131 0 0 0 6.528 4.705c1.66.046 3.206-.369 4.656-1.144 4.587-2.453 6.884-6.353 7.248-11.459l-.067-.03M91.578 81.499c-1.457.523-2.897.523-4.24-.343-1.256-.81-1.948-2.002-2.154-3.466-.55-3.896 2.045-8.099 5.775-9.34 1.63-.543 3.18-.401 4.542.737 1.078.898 1.612 2.084 1.736 3.466.02.228.025.459.032.598-.035 3.731-2.394 7.165-5.691 8.348m8.932-10.593c-.438-2.53-1.828-4.375-4.13-5.48-1.831-.879-3.76-.86-5.652-.227-3.56 1.194-6.157 3.511-7.753 6.92-1.038 2.218-1.506 4.544-1.066 6.981.46 2.551 1.892 4.404 4.266 5.454 1.78.789 3.632.728 5.47.156 5.17-1.61 8.931-6.734 9.024-12.23-.051-.526-.069-1.055-.159-1.574" fill="#FFF"/>
    </g>
</svg>
